# xmcd CD database file
#
# Track frame offsets:
#	150
#	13747
#	30685
#	41568
#	55117
#	73746
#	83958
#	99707
#	117375
#	134849
#	146286
#	157632
#
# Disc length: 2265 seconds
#
# Revision: 0
# Processed by: cddbd v1.5.1PL2 Copyright (c) Steve Scherf et al.
# Submitted via: CDex 1.51
#
DISCID=a208d70c
DTITLE=The Sunny Cowgirls - Little Bit Rusty
DYEAR=2005
DGENRE=Country
TTITLE0=Rousy's Life
TTITLE1=Little Bit Rusty
TTITLE2=Flowers on the Wall
TTITLE3=Holding On
TTITLE4=That's What I Like
TTITLE5=Sold
TTITLE6=Advance My Spark
TTITLE7=Country Lovin Cowgirls
TTITLE8=Take These Wings
TTITLE9=Folsom Prison Blues
TTITLE10=Country Flirting
TTITLE11=I've Been Everywhere
EXTD=YEAR: 2005
EXTT0=
EXTT1=
EXTT2=
EXTT3=
EXTT4=
EXTT5=
EXTT6=
EXTT7=
EXTT8=
EXTT9=
EXTT10=
EXTT11=
PLAYORDER=
